<svg width="64" height="64" viewBox="0 0 64 64" fill="none" xmlns="http://www.w3.org/2000/svg">
<g id="&#240;&#159;&#166;&#134; icon &#34;portfolio&#34;">
<path id="Vector" d="M31.56 63.12C48.9901 63.12 63.12 48.9901 63.12 31.56C63.12 14.1299 48.9901 0 31.56 0C14.1299 0 0 14.1299 0 31.56C0 48.9901 14.1299 63.12 31.56 63.12Z" fill="#00ADB5" fill-opacity="0.4"/>
<path id="Vector_2" opacity="0.1" d="M63.0755 33.2392L49.8601 20.2773L49.1482 23.5057L37.9852 15.8161L24.7795 17.0128L24.1747 19.1819L23.5467 22.7248L20.335 38.1697L22.7047 40.5394L13.1696 47.1133L29.164 63.03C29.9549 63.0894 30.7539 63.12 31.56 63.12C48.4267 63.12 62.2025 49.8886 63.0755 33.2392Z" fill="black"/>
<path id="Vector_3" d="M24.5348 20.9211V18.5812C24.5348 17.8506 25.1495 17.2585 25.908 17.2585H37.2121C37.9706 17.2585 38.5856 17.8508 38.5856 18.5812V20.9211H39.5097V17.8967C39.5097 17.0386 38.8139 16.3429 37.9558 16.3429H25.1644C24.3063 16.3429 23.6106 17.0386 23.6106 17.8967V20.9211H24.5348Z" fill="#42536C"/>
<path id="Vector_4" d="M25.1644 15.9543H38.2142V17.6772H25.1644V15.9543Z" fill="#57687C"/>
<path id="Vector_5" d="M13.1071 20.3049H50.0127V47.1657H13.1071V20.3049Z" fill="#42536C"/>
<path id="Vector_6" d="M13.1071 31.4214C18.0957 32.8654 24.5327 33.7353 31.56 33.7353C38.5873 33.7353 45.0244 32.8654 50.0129 31.4214V20.3049H13.1071V31.4214Z" fill="#57687C"/>
<g id="Group">
<path id="Vector_7" d="M30.478 34.7114H32.6424V35.0672H30.478V34.7114Z" fill="#E6E7E8"/>
<path id="Vector_8" d="M30.478 30.4106V34.4063H32.6424V30.4106H30.478ZM31.56 34.1792C31.3531 34.1792 31.1853 34.0116 31.1853 33.8047C31.1853 33.5977 31.3531 33.4301 31.56 33.4301C31.7669 33.4301 31.9347 33.5977 31.9347 33.8047C31.9347 34.0116 31.7669 34.1792 31.56 34.1792Z" fill="#E6E7E8"/>
</g>
</g>
</svg>
