<svg width="94" height="69" viewBox="0 0 94 69" fill="none" xmlns="http://www.w3.org/2000/svg">
<path opacity="0.18" d="M6.32755 59.2838C-1.45459 53.6474 0.476569 40.1868 0.983138 35.8511C1.26407 33.4643 1.85028 31.0774 3.05808 29.0335C6.5377 23.1405 13.9482 21.6517 19.4254 17.7916C25.5197 13.5201 29.3997 6.15158 35.9585 2.72283C39.5687 0.835917 43.681 0.324924 47.7092 0.09929C55.0224 -0.312159 63.0257 0.380226 68.4608 5.54325C72.3917 9.27726 74.3516 14.7876 77.8445 18.9751C80.9238 22.6693 85.0825 25.2021 88.3055 28.7592C93.0925 34.0372 95.5391 42.1136 92.9509 48.8782C90.5464 55.145 86.8654 59.2573 84.9564 59.8767C78.8289 61.8676 65.4369 62.1087 59.0285 62.5644C52.1599 63.051 45.9771 61.9848 39.0953 62.0069C28.4772 62.0423 13.9902 62.6285 6.3364 59.275" fill="#00ADB5"/>
<path d="M65.8417 39.2865C65.8417 39.2865 66.8371 41.7928 61.61 43.3457C56.3828 44.8986 53.5137 51.0416 53.6265 56.209V59.5404C53.6265 59.5404 69.881 65.5131 83.6645 60.0005C83.6645 60.0005 84.9918 46.0445 75.5683 42.7706C75.5683 42.7706 73.615 42.1954 74.1879 39.8948C74.1879 39.8948 78.6696 37.3664 77.8644 30.7036C77.0592 24.0408 74.4998 21.9725 71.8542 21.822C61.1698 21.2137 61.1322 35.2273 65.8417 39.2865Z" fill="#F7AF87"/>
<path d="M84.9564 59.8855C84.9564 59.8855 85.1555 50.1523 83.5385 46.8475C82.1736 44.0536 78.652 43.3369 75.6789 42.4233C75.5137 42.3617 75.3369 42.3375 75.1613 42.3525C74.944 42.4083 74.7436 42.5161 74.5773 42.6666C72.961 43.883 70.9539 44.4625 68.938 44.2948C66.9221 44.1272 65.0383 43.2241 63.6451 41.7574C60.0792 42.8436 57.2898 42.8214 55.4183 46.0467C53.5469 49.2719 52.62 55.5697 52.9718 59.2816C52.9629 59.2838 69.0293 65.794 84.9564 59.8855Z" fill="#00ADB5"/>
<path d="M56.7389 46.1374C56.7389 46.1374 59.4377 43.37 60.5238 43.3568C61.61 43.3435 68.2662 62.2237 68.2662 62.2237L58.3317 61.7503L56.7389 46.1374Z" fill="url(#paint0_linear_1_47)"/>
<path d="M62.559 22.8529C63.1806 20.7868 64.7246 18.8711 66.8283 18.3911C67.4565 18.2473 68.1047 18.2362 68.7373 18.1146C69.1222 18.0394 69.4983 17.9265 69.8788 17.8314C71.4387 17.42 73.0806 17.4353 74.6326 17.8757C76.1907 18.3274 77.5263 19.34 78.3821 20.7182C79.1607 22.0455 79.3797 23.6293 79.2669 25.1601C79.1541 26.6909 78.267 29.4029 77.849 30.8784C77.1057 29.905 77.6012 27.1443 76.5615 26.494C75.8227 26.0317 74.8715 26.2418 74.011 26.3878C72.0153 26.7307 69.9702 26.6554 68.0051 26.1666C67.0738 25.9321 66.1182 25.6047 65.1781 25.795C64.3618 25.9587 64.072 26.5847 63.6296 27.2793C63.3155 27.7593 63.1275 30.155 62.8598 30.6217C62.236 30.4005 62.1143 26.6046 62.121 26.0582C62.116 24.9745 62.2635 23.8955 62.559 22.8529Z" fill="#404040"/>
<path d="M78.4285 30.2413C78.5276 30.1471 78.6447 30.074 78.7729 30.0265C78.901 29.9789 79.0375 29.9579 79.174 29.9648C79.2783 29.9873 79.3761 30.0331 79.4604 30.0985C79.5446 30.164 79.613 30.2476 79.6607 30.343C79.7548 30.5347 79.8061 30.7445 79.8111 30.958C79.8618 31.8112 79.5831 32.6513 79.0324 33.305C78.7294 33.659 78.2781 33.9686 77.8246 33.8603C77.7338 33.8442 77.6503 33.8001 77.5857 33.7342C77.5361 33.6722 77.5 33.6007 77.4795 33.524C77.3031 32.8548 77.2909 32.1528 77.4441 31.4778C77.495 31.1836 77.5238 30.8961 77.7715 30.7058C77.9772 30.5465 78.2162 30.4005 78.4285 30.2413Z" fill="#F7AF87"/>
<path d="M33.1934 40.366C33.5429 40.3085 33.9234 40.2311 34.1513 39.9612C34.3177 39.7214 34.4121 39.4389 34.4233 39.1471C34.8503 35.9374 36.0382 26.4807 32.8749 21.0611C32.4325 20.2868 31.291 20.1077 30.6761 19.5126C29.2338 18.0969 27.3867 16.3803 24.8339 16.398C18.7153 16.44 15.9302 19.4684 13.4239 25.0517C11.902 28.4384 11.4331 38.6959 12.694 39.6891C14.0212 40.7354 17.5163 40.6514 19.1621 40.8151C23.8388 41.2763 28.5558 41.1253 33.1934 40.366Z" fill="#404040"/>
<path d="M30.5942 24.6093C30.7107 24.4497 30.862 24.3188 31.0366 24.2266C31.5521 23.9744 32.1759 24.2708 32.5851 24.669C33.1014 25.2136 33.4607 25.8878 33.6248 26.6201C33.7819 27.3467 33.8561 28.0888 33.846 28.8322C33.8593 29.745 33.8313 30.6579 33.7619 31.5707C33.6912 32.9135 33.4106 34.2369 32.9302 35.4928C32.4148 36.7338 31.572 37.8686 30.4173 38.5521C29.559 35.4817 29.4793 32.2565 29.4063 29.0711C29.3931 28.5645 29.382 28.0601 29.3931 27.5558C29.3931 27.3567 29.3378 26.9718 29.4329 26.7948C29.528 26.6179 29.6983 26.6532 29.8532 26.536C30.0987 26.3524 30.0567 26.0117 30.112 25.733C30.1975 25.3304 30.3614 24.9486 30.5942 24.6093Z" fill="url(#paint1_linear_1_47)"/>
<path d="M14.3906 31.1526C14.1654 31.1836 13.9508 31.2678 13.7646 31.3982C13.606 31.5405 13.4825 31.7177 13.404 31.9158C13.0549 32.6832 12.8929 33.5225 12.9314 34.3647C12.9698 35.2069 13.2076 36.0279 13.6253 36.7603C13.6253 36.7603 14.6672 35.6432 14.7578 35.5282C15.1167 35.0622 15.4349 34.5664 15.709 34.0461C15.959 33.5705 17.2708 31.365 16.6094 31.0929C16.1913 30.9226 14.895 31.0465 14.3906 31.1526Z" fill="url(#paint2_linear_1_47)"/>
<path d="M15.8882 39.2865C15.4038 38.165 15.5011 36.8842 15.667 35.6742C15.8152 34.6212 16.0298 33.5373 16.647 32.6724C17.2216 31.9133 18.0118 31.3451 18.9144 31.042C19.8116 30.7443 20.746 30.5731 21.6905 30.5333C23.0475 30.4403 24.4098 30.4625 25.763 30.5996C26.7154 30.6643 27.6501 30.8886 28.5281 31.2633C29.7227 31.8476 30.6746 32.8323 31.218 34.0461C31.7536 35.2591 31.9354 36.5988 31.7423 37.9106C31.6987 38.4751 31.4963 39.0158 31.1583 39.4701C30.7624 39.8758 30.2628 40.165 29.7138 40.3063C27.7229 40.9434 25.6126 40.8947 23.5509 40.8129C21.841 40.7465 20.1133 40.8438 18.4299 40.512C17.4433 40.3196 16.3395 40.3351 15.8882 39.2865Z" fill="url(#paint3_linear_1_47)"/>
<path d="M37.0314 59.9983C23.239 65.5131 6.9934 59.5382 6.9934 59.5382V56.2201C6.86952 51.0394 9.74524 44.8942 14.9768 43.3457C20.2084 41.7972 19.8434 39.9855 19.8434 39.9855C15.1361 35.9286 14.5344 21.2159 25.2255 21.8265C27.88 21.9769 30.4349 24.0386 31.2357 30.7102C32.0365 37.3819 26.8115 40.2952 26.8115 40.2952C26.7411 40.6228 26.7662 40.9637 26.8839 41.2774C27.0015 41.5911 27.2067 41.8644 27.4752 42.0649C27.9082 42.3988 28.4051 42.6405 28.9351 42.775C38.3476 46.0422 37.0314 59.9983 37.0314 59.9983Z" fill="#F7AF87"/>
<path d="M19.4143 31.5552C21.4981 31.5552 23.604 31.2566 25.513 30.4249C27.4221 29.5931 29.1232 28.1884 30.0965 26.3502C30.4249 25.7734 30.615 25.1282 30.6517 24.4655C30.6761 23.2134 29.8819 22.0432 28.8268 21.3686C27.7716 20.6939 26.4952 20.4505 25.2454 20.3974C22.5533 20.2846 19.7727 21.0434 17.7243 22.7931C16.8754 23.5138 16.1826 24.4001 15.6881 25.3978C15.1937 26.3955 14.908 27.4836 14.8485 28.5955C14.749 31.0243 17.4278 31.553 19.4143 31.5552Z" fill="#404040"/>
<path d="M38.3122 59.8855C38.3122 59.8855 37.2615 51.9419 35.6444 48.6304C34.2796 45.8365 32.0055 43.3369 29.0325 42.4255C28.8673 42.3638 28.6905 42.3396 28.5148 42.3547C28.2981 42.41 28.0983 42.5179 27.9331 42.6688C26.3168 43.8852 24.3096 44.4647 22.2938 44.297C20.2779 44.1294 18.394 43.2263 17.0009 41.7596C13.4378 42.8632 10.4244 45.2744 8.56619 48.5087C6.69476 51.7318 5.98468 55.5719 6.32755 59.2838C6.32755 59.2838 22.3829 65.794 38.3122 59.8855Z" fill="#00ADB5"/>
<path d="M26.8447 61.987C26.8447 61.987 20.7239 62.6661 19.4807 62.0445C19.4807 62.0445 22.5776 45.3985 29.9483 43.0028C29.9483 43.0028 33.1425 43.5337 35.6444 48.6304C36.3722 50.1103 26.8447 61.987 26.8447 61.987Z" fill="url(#paint4_linear_1_47)"/>
<path d="M26.8624 65.4755V55.3972C26.8624 55.3972 29.2758 46.3276 37.6619 45.2879C46.0479 44.2482 55.1219 45.633 55.1219 45.633C55.1219 45.633 63.9703 46.7811 65.574 57.6933V66.3094C65.574 66.3094 43.2894 72.7511 26.8624 65.4755Z" fill="#00ADB5"/>
<path d="M37.9671 33.586C37.6088 33.3647 37.1686 33.2121 36.7748 33.3647C36.6118 33.4287 36.4657 33.5294 36.3479 33.6589C35.7263 34.3226 35.7617 35.3556 35.9585 36.2405C36.0681 36.7371 36.216 37.2245 36.401 37.6982C36.478 37.9178 36.5893 38.1239 36.7306 38.3088C37.173 38.833 37.9472 38.9038 38.6285 38.8242C39.0311 38.7777 39.4802 38.6561 39.6638 38.2933C39.727 38.1539 39.763 38.0037 39.77 37.8509C39.9536 36.0613 39.5333 34.5327 37.9671 33.586Z" fill="#F7AF87"/>
<path d="M54.8365 34.3115C55.3387 33.962 55.9913 33.6921 56.5553 33.9355C56.776 34.047 56.9637 34.2143 57.0999 34.4207C57.2361 34.6271 57.316 34.8655 57.3318 35.1123C57.3573 35.6059 57.2711 36.0989 57.0796 36.5546C56.8854 37.1398 56.5813 37.6826 56.1837 38.1539C55.7801 38.6264 55.2094 38.9244 54.591 38.9857C54.2834 39.0096 53.9754 38.9454 53.7031 38.8004C53.4308 38.6554 53.2054 38.4358 53.0536 38.1672C52.9034 37.8084 52.834 37.421 52.8501 37.0324C52.8225 36.7337 52.8564 36.4326 52.9496 36.1476C53.193 35.5392 54.3211 34.6699 54.8365 34.3115Z" fill="#F7AF87"/>
<path d="M41.0486 46.2635C40.8521 46.601 40.737 46.9797 40.7123 47.3695C40.7269 47.5987 40.7824 47.8234 40.876 48.0331C41.6857 50.024 43.3624 51.0283 44.9795 51.4928C45.4648 51.6441 45.9689 51.7267 46.4771 51.7384C48.0034 51.7384 49.512 50.6899 50.4301 48.9976C50.4837 48.9109 50.5177 48.8135 50.5296 48.7122C50.5245 48.5807 50.4873 48.4523 50.4212 48.3384C49.8505 47.1085 49.9545 45.5224 50.1049 44.0779C50.1278 43.9585 50.1202 43.8352 50.0828 43.7196C50.0601 43.6756 50.0289 43.6367 49.9909 43.6052C49.9529 43.5737 49.9089 43.5501 49.8616 43.5359C48.8728 43.1201 47.8109 43.3789 46.7646 43.3391C45.3268 43.286 43.9331 42.6246 42.4931 42.6224C41.8516 42.6224 41.8029 42.8613 41.7122 43.6642C41.6324 44.5607 41.4083 45.4384 41.0486 46.2635Z" fill="#F7AF87"/>
<path d="M41.0663 42.1246C41.0663 42.1246 41.8958 45.3764 43.9066 47.5067C45.9174 49.6369 50.6778 49.2299 50.1159 47.3275C49.6426 45.7326 50.5296 42.1246 50.5296 42.1246H41.0663Z" fill="url(#paint5_linear_1_47)"/>
<path d="M62.5457 30.1196C62.3245 29.8984 62.0657 29.6772 61.7538 29.6573C61.6319 29.6575 61.5116 29.6851 61.4017 29.7379C61.2918 29.7907 61.1952 29.8675 61.1189 29.9625C60.9666 30.1555 60.8654 30.3838 60.8247 30.6262C60.72 31.2136 60.7665 31.818 60.9596 32.3826C61.1808 33.0728 61.5768 33.7718 62.2493 34.035C62.365 34.0908 62.4932 34.1159 62.6215 34.1078C62.7497 34.0996 62.8737 34.0586 62.9815 33.9886C63.1262 33.8435 63.2161 33.6528 63.2359 33.4488C63.4991 32.1459 63.5411 31.0885 62.5457 30.1196Z" fill="#F7AF87"/>
<path d="M54.3167 35.9927C53.6818 41.3261 50.7176 45.7259 46.2757 45.7259C41.8339 45.7259 38.2348 41.3703 38.2348 35.9927C38.2348 30.6151 41.0906 24.5518 45.5347 24.5518C49.9788 24.5518 55.6152 25.0915 54.3167 35.9927Z" fill="#F7AF87"/>
<path d="M37.0226 34.2341C36.7276 32.1238 36.5337 30.0016 36.4408 27.8677C36.401 26.9276 36.4164 25.8768 37.0469 25.1844C37.213 25.0328 37.3614 24.8629 37.4893 24.6779C37.5941 24.4405 37.652 24.1851 37.6596 23.9257C37.8985 21.9105 39.3563 20.2271 41.0287 19.079C42.8611 17.8242 44.9859 17.0624 47.1982 16.867C47.9095 16.7896 48.6285 16.8202 49.3306 16.9577C50.0366 17.1299 50.7144 17.4018 51.3437 17.7651C52.3435 18.307 53.3058 18.9618 54.0159 19.8489C54.7259 20.7359 55.1617 21.8884 55.0113 23.0144C55.4987 23.2229 55.9365 23.5321 56.296 23.9217C56.6555 24.3113 56.9286 24.7725 57.0973 25.2751C57.4233 26.3178 57.5273 27.4172 57.4026 28.5026C57.1814 31.0863 56.1992 33.7386 54.1375 35.3092C54.1707 33.5028 53.7702 31.7148 52.9695 30.0953C52.6633 29.5433 52.385 28.9763 52.1356 28.3964C51.9007 27.7756 51.7866 27.1156 51.7993 26.452C50.9366 26.9121 50.4301 27.8544 49.616 28.3986C49.0954 28.714 48.5184 28.9252 47.9171 29.0202C45.9822 29.4023 43.9852 29.3327 42.0816 28.8167C41.3295 28.6132 40.3717 28.4008 39.8983 29.0202C39.6041 29.4029 39.6549 29.9338 39.6151 30.416C39.5497 30.9415 39.4227 31.4575 39.2369 31.9534L38.0645 35.4928C37.6663 35.1543 37.0978 34.7539 37.0226 34.2341Z" fill="#404040"/>
<path d="M27.5106 42.16C23.792 44.5424 21.2017 40.5032 21.0822 40.3019C21.9555 40.7905 22.9395 41.0471 23.9402 41.0471C24.941 41.0471 25.925 40.7905 26.7983 40.3019C26.7279 40.6294 26.753 40.9703 26.8706 41.284C26.9882 41.5977 27.1935 41.871 27.4619 42.0715L27.5106 42.16Z" fill="url(#paint6_linear_1_47)"/>
<path d="M62.5125 32.5153C62.3577 32.314 62.194 32.0729 62.2692 31.8251C62.3444 31.5774 62.6054 31.4491 62.6076 31.2102C62.6026 31.1423 62.5832 31.0763 62.5508 31.0164C62.5184 30.9565 62.4737 30.9042 62.4196 30.8629C62.2925 30.7458 62.1296 30.6749 61.9573 30.6616C61.898 30.6571 61.8388 30.6702 61.787 30.6992C61.7283 30.7415 61.6842 30.8011 61.6609 30.8695C61.402 31.4491 61.4883 32.1304 61.7162 32.7232C61.7544 32.8359 61.8137 32.9402 61.8909 33.0307C62 33.1304 62.1324 33.2011 62.2758 33.2365C62.497 33.3072 62.7581 33.3094 62.8089 33.0329C62.8465 32.8338 62.6143 32.6569 62.5125 32.5153Z" fill="url(#paint7_linear_1_47)"/>
<path d="M78.2648 32.5595C78.4197 32.3582 78.5833 32.1171 78.5081 31.8694C78.4329 31.6216 78.1719 31.4933 78.1675 31.2544C78.1731 31.1864 78.1929 31.1204 78.2257 31.0605C78.2584 31.0007 78.3034 30.9484 78.3577 30.9071C78.4844 30.7893 78.6475 30.7182 78.82 30.7058C78.8786 30.7013 78.9371 30.7144 78.9882 30.7434C79.0474 30.7856 79.0922 30.8451 79.1165 30.9137C79.3731 31.4933 79.2868 32.1746 79.0589 32.7675C79.0247 32.8973 78.954 33.0146 78.8552 33.1055C78.7564 33.1965 78.6337 33.2573 78.5015 33.2807C78.2803 33.3515 78.0193 33.3537 77.9662 33.0772C77.9308 32.8825 78.1542 32.7011 78.2648 32.5595Z" fill="url(#paint8_linear_1_47)"/>
<path d="M54.33 36.7603C54.5748 36.7884 54.8217 36.7289 55.0268 36.5922C55.1341 36.5416 55.2274 36.4657 55.2989 36.371C55.4803 36.0856 55.2812 35.6897 55.4117 35.38C55.476 35.2673 55.5657 35.171 55.6735 35.0989C55.7814 35.0267 55.9046 34.9806 56.0333 34.9641C56.1238 34.9341 56.2215 34.9341 56.312 34.9641C56.3795 35.0094 56.4338 35.0717 56.4696 35.1447C56.5053 35.2177 56.5212 35.2989 56.5155 35.38C56.5606 36.081 56.3358 36.7727 55.8873 37.3133C55.6628 37.5792 55.3867 37.7967 55.0757 37.9526C54.7646 38.1085 54.4251 38.1996 54.0778 38.2203C54.0424 38.2252 54.0063 38.2199 53.9738 38.2048C53.9383 38.181 53.913 38.1447 53.903 38.103C53.8328 37.903 53.8163 37.688 53.8551 37.4796C53.8939 37.2711 53.9867 37.0765 54.1242 36.9152" fill="url(#paint9_linear_1_47)"/>
<path d="M36.9894 35.8467C37.0911 36.017 37.2969 36.0834 37.4672 36.183C37.6376 36.2856 37.7794 36.4296 37.8792 36.6017C37.9789 36.7739 38.0336 36.9684 38.0379 37.1673C38.0508 37.2985 38.0213 37.4304 37.9536 37.5435C37.8859 37.6566 37.7836 37.745 37.6618 37.7956C37.4163 37.8641 37.1708 37.6894 36.9982 37.5014C36.7754 37.2531 36.6036 36.9634 36.4928 36.6487C36.382 36.3341 36.3342 36.0006 36.3523 35.6675C36.3656 35.4463 36.4607 34.8889 36.8146 35.0039C37.0978 35.1035 36.8522 35.6167 36.9894 35.8467Z" fill="url(#paint10_linear_1_47)"/>
<path d="M37.7879 29.0844C37.5512 29.4124 37.411 29.8001 37.3831 30.2037C37.3385 30.7867 37.3593 31.3728 37.4451 31.9512L37.7791 34.9575C38.195 33.5196 39.1771 32.2653 39.4006 30.7855C39.4713 30.3143 39.4581 29.8232 39.6085 29.3675C39.6749 29.1684 40.0686 28.6773 39.9226 28.4827C39.7766 28.288 38.9382 28.4428 38.7192 28.5048C38.3563 28.5968 38.0308 28.7993 37.7879 29.0844Z" fill="url(#paint11_linear_1_47)"/>
<path d="M54.3056 24.0651C54.3392 24.046 54.378 24.0383 54.4163 24.043C54.4649 24.054 54.4937 24.1005 54.5202 24.1447C55.029 25.0141 55.5466 25.9011 55.7701 26.8855C55.8861 27.4297 55.9329 27.9864 55.9094 28.5424C55.8525 30.4122 55.274 32.2288 54.2393 33.7873C54.0313 33.0993 54.0535 32.3605 53.8876 31.6592C53.6664 30.708 53.1111 29.8741 52.6267 29.0246C52.1843 28.2504 51.4122 26.943 51.9741 26.098C52.5323 25.204 53.3439 24.4963 54.3056 24.0651Z" fill="url(#paint12_linear_1_47)"/>
<path d="M65.8417 39.2865C65.8417 39.2865 67.1004 40.8217 69.8389 40.9036C72.7943 40.992 74.1879 39.8993 74.1879 39.8993C74.1879 39.8993 72.885 42.775 69.631 43.4165C67.5716 43.8279 65.2555 42.9431 64.8418 41.868C64.8418 41.8791 66.1912 40.6248 65.8417 39.2865Z" fill="url(#paint13_linear_1_47)"/>
<path d="M41.126 45.4273C41.126 45.4273 41.9246 49.2409 44.7627 50.128C47.6008 51.015 49.9965 48.1769 50.085 46.3143C50.1735 44.4518 50.6181 44.9871 50.6181 44.9871L51.3282 45.4295V52.4374L45.9174 51.6366L40.5951 53.1453C40.5951 53.1453 39.1749 46.7568 39.9735 44.9827" fill="#00ADB5"/>
<defs>
<linearGradient id="paint0_linear_1_47" x1="48.1074" y1="46.7214" x2="96.4327" y2="71.5764" gradientUnits="userSpaceOnUse">
<stop stop-opacity="0"/>
<stop offset="0.99"/>
</linearGradient>
<linearGradient id="paint1_linear_1_47" x1="28.7471" y1="33.1546" x2="36.2218" y2="26.6356" gradientUnits="userSpaceOnUse">
<stop stop-opacity="0"/>
<stop offset="0.6" stop-opacity="0.36"/>
<stop offset="0.99"/>
</linearGradient>
<linearGradient id="paint2_linear_1_47" x1="14.5632" y1="36.4816" x2="15.2069" y2="28.1132" gradientUnits="userSpaceOnUse">
<stop stop-opacity="0"/>
<stop offset="0.99"/>
</linearGradient>
<linearGradient id="paint3_linear_1_47" x1="23.8075" y1="31.2102" x2="23.5421" y2="43.1864" gradientUnits="userSpaceOnUse">
<stop stop-opacity="0"/>
<stop offset="0.99"/>
</linearGradient>
<linearGradient id="paint4_linear_1_47" x1="18.7595" y1="49.3847" x2="47.7402" y2="64.2898" gradientUnits="userSpaceOnUse">
<stop stop-opacity="0"/>
<stop offset="0.99"/>
</linearGradient>
<linearGradient id="paint5_linear_1_47" x1="42.7076" y1="49.1303" x2="51.7617" y2="36.2891" gradientUnits="userSpaceOnUse">
<stop stop-opacity="0"/>
<stop offset="0.99"/>
</linearGradient>
<linearGradient id="paint6_linear_1_47" x1="23.5753" y1="44.5845" x2="25.3494" y2="36.3356" gradientUnits="userSpaceOnUse">
<stop stop-opacity="0"/>
<stop offset="0.99"/>
</linearGradient>
<linearGradient id="paint7_linear_1_47" x1="61.0946" y1="31.9136" x2="65.0874" y2="32.1127" gradientUnits="userSpaceOnUse">
<stop stop-opacity="0"/>
<stop offset="0.99"/>
</linearGradient>
<linearGradient id="paint8_linear_1_47" x1="79.6805" y1="31.9579" x2="75.6877" y2="32.1569" gradientUnits="userSpaceOnUse">
<stop stop-opacity="0"/>
<stop offset="0.99"/>
</linearGradient>
<linearGradient id="paint9_linear_1_47" x1="56.9712" y1="37.3952" x2="50.7906" y2="34.6433" gradientUnits="userSpaceOnUse">
<stop stop-opacity="0"/>
<stop offset="0.99"/>
</linearGradient>
<linearGradient id="paint10_linear_1_47" x1="36.2572" y1="36.8554" x2="39.7832" y2="35.0813" gradientUnits="userSpaceOnUse">
<stop stop-opacity="0"/>
<stop offset="0.99"/>
</linearGradient>
<linearGradient id="paint11_linear_1_47" x1="39.5067" y1="34.535" x2="37.9096" y2="27.6155" gradientUnits="userSpaceOnUse">
<stop stop-opacity="0"/>
<stop offset="0.6" stop-opacity="0.36"/>
<stop offset="0.99"/>
</linearGradient>
<linearGradient id="paint12_linear_1_47" x1="57.5419" y1="24.9256" x2="51.1999" y2="32.0242" gradientUnits="userSpaceOnUse">
<stop stop-opacity="0"/>
<stop offset="0.6" stop-opacity="0.36"/>
<stop offset="0.99"/>
</linearGradient>
<linearGradient id="paint13_linear_1_47" x1="70.7459" y1="46.4493" x2="66.6712" y2="28.0358" gradientUnits="userSpaceOnUse">
<stop stop-opacity="0"/>
<stop offset="0.99"/>
</linearGradient>
</defs>
</svg>
